<?xml version="1.0" standalone="no"?>
<!DOCTYPE svg PUBLIC "-//W3C//DTD SVG 1.1//EN" "http://www.w3.org/Graphics/SVG/1.1/DTD/svg11.dtd" >
<svg xmlns="http://www.w3.org/2000/svg">
<metadata>
Created by FontForge 20120731 at Wed Sep 21 19:53:56 2016
 By admin
</metadata>
<defs>
<font id="iconfont" horiz-adv-x="1024" >
  <font-face 
    font-family="iconfont"
    font-weight="500"
    font-stretch="normal"
    units-per-em="1024"
    panose-1="2 0 6 3 0 0 0 0 0 0"
    ascent="896"
    descent="-128"
    x-height="792"
    bbox="0 -212 1082.32 896"
    underline-thickness="50"
    underline-position="-100"
    unicode-range="U+0078-E620"
  />
<missing-glyph horiz-adv-x="374" 
d="M34 0v682h272v-682h-272zM68 34h204v614h-204v-614z" />
    <glyph glyph-name=".notdef" horiz-adv-x="374" 
d="M34 0v682h272v-682h-272zM68 34h204v614h-204v-614z" />
    <glyph glyph-name=".null" horiz-adv-x="0" 
 />
    <glyph glyph-name="nonmarkingreturn" horiz-adv-x="341" 
 />
    <glyph glyph-name="x" unicode="x" horiz-adv-x="1001" 
d="M281 543q-27 -1 -53 -1h-83q-18 0 -36.5 -6t-32.5 -18.5t-23 -32t-9 -45.5v-76h912v41q0 16 -0.5 30t-0.5 18q0 13 -5 29t-17 29.5t-31.5 22.5t-49.5 9h-133v-97h-438v97zM955 310v-52q0 -23 0.5 -52t0.5 -58t-10.5 -47.5t-26 -30t-33 -16t-31.5 -4.5q-14 -1 -29.5 -0.5
t-29.5 0.5h-32l-45 128h-439l-44 -128h-29h-34q-20 0 -45 1q-25 0 -41 9.5t-25.5 23t-13.5 29.5t-4 30v167h911zM163 247q-12 0 -21 -8.5t-9 -21.5t9 -21.5t21 -8.5q13 0 22 8.5t9 21.5t-9 21.5t-22 8.5zM316 123q-8 -26 -14 -48q-5 -19 -10.5 -37t-7.5 -25t-3 -15t1 -14.5
t9.5 -10.5t21.5 -4h37h67h81h80h64h36q23 0 34 12t2 38q-5 13 -9.5 30.5t-9.5 34.5q-5 19 -11 39h-368zM336 498v228q0 11 2.5 23t10 21.5t20.5 15.5t34 6h188q31 0 51.5 -14.5t20.5 -52.5v-227h-327z" />
    <glyph glyph-name="uniE600" unicode="&#xe600;" 
d="M483 507.5q-16 16.5 -39 26t-47 9.5q-26 0 -48 -9.5t-38.5 -26t-26.5 -39t-10 -47.5t10 -47.5t26.5 -39t38.5 -26t48 -9.5q24 0 47 9.5t39 26t25.5 39t9.5 47.5t-9.5 47.5t-25.5 39zM794 367.5q-11 10.5 -26 17t-32 6.5t-32 -6.5t-26 -17t-17.5 -26t-6.5 -31.5
q0 -18 6.5 -33t17.5 -26t26 -17.5t32 -6.5t32 6.5t26 17.5t17.5 26t6.5 33q0 16 -6.5 31.5t-17.5 26zM525 766q-91 0 -174.5 -35.5t-143.5 -96t-95.5 -143.5t-35.5 -174.5t35.5 -174.5t95.5 -143t143.5 -95.5t174.5 -35.5t174.5 35.5t143.5 95.5t95.5 143t35.5 174.5
t-35.5 174.5t-95.5 143.5t-143.5 96t-174.5 35.5zM535 320l-146 -229q-9 -12 -22 -12q-12 0 -18.5 8t-6.5 17q0 7 4 13l88 137q-9 -2 -19 -3q-9 -1 -18 -1q-36 0 -67.5 13.5t-54.5 36.5t-37 54.5t-14 67t14 67t37 54.5t54.5 37t67 14t67 -14t54.5 -37t36.5 -54.5t13.5 -67.5
q0 -27 -9.5 -52.5t-23.5 -48.5zM621 89q-10 -10 -23.5 -10t-23 10t-9.5 23.5t9.5 23t23 9.5t23.5 -9.5t10 -23t-10 -23.5zM829 241l-99 -154q-5 -8 -14 -8q-8 0 -12.5 5.5t-4.5 11.5q0 4 3 9l59 92q-6 -1 -12.5 -2t-12.5 -1q-24 0 -45 9t-37 24.5t-25 37t-9 45t9 45t25 37
t37 25t45 9.5t45 -9.5t36.5 -25t24.5 -37t9 -44.5q0 -19 -6 -36.5t-16 -32.5z" />
    <glyph glyph-name="uniE601" unicode="&#xe601;" 
d="M672 -180h-345q-13 0 -22.5 9.5t-9.5 22.5v310q0 13 9.5 22.5t22.5 9.5h345q13 0 22.5 -9.5t9.5 -22.5v-310q0 -13 -9.5 -22.5t-22.5 -9.5zM359 -116h281v246h-281v-246zM637.5 130q-13.5 0 -22.5 9.5t-9 22.5v140h-212v-140q0 -13 -9.5 -22.5t-22.5 -9.5t-22.5 9.5
t-9.5 22.5v172q0 14 9.5 23t22.5 9h276q13 0 22.5 -9t9.5 -23v-172q0 -13 -9.5 -22.5t-23 -9.5zM603 302q-13 0 -22.5 9.5t-9.5 22.5v378q-29 -7 -55 -26.5t-44 -44.5t-27.5 -41.5t-16.5 -30.5v-140q0 -13 -9 -22.5t-22.5 -9.5t-23 9.5t-9.5 22.5v147q0 6 3 12q3 9 10 23.5
t28.5 46.5t47 57t66 45t84.5 20q13 0 22.5 -9.5t9.5 -22.5v-414q0 -13 -9.5 -22.5t-22.5 -9.5z" />
    <glyph glyph-name="uniE602" unicode="&#xe602;" horiz-adv-x="1059" 
d="M878 622q-5 0 -9 3l-158 158q-9 10 -19 0l-157 -158q-9 -8 -18 0.5t0 17.5l158 158q11 11 27 11t27 -11l158 -158q9 -9 0 -18q-4 -3 -9 -3zM364.5 -212q-41.5 0 -71.5 29.5t-30 71.5t30 72t71.5 30t71.5 -30t30 -72t-30 -71.5t-71.5 -29.5zM364.5 -34q-31.5 0 -54 -22.5
t-22.5 -54t22.5 -54t54 -22.5t54 22.5t22.5 54t-22.5 54t-54 22.5zM806 -212q-42 0 -71.5 29.5t-29.5 71.5t29.5 72t71.5 30t71.5 -30t29.5 -72t-29.5 -71.5t-71.5 -29.5zM806 -34q-32 0 -54 -22.5t-22 -54t22 -54t54 -22.5t54 22.5t22 54t-22 54t-54 22.5zM879 20h-491
q-62 0 -102.5 31.5t-52.5 90.5q-27 127 -97 500h-76q-25 0 -42.5 18t-17.5 42.5t17.5 42t42.5 17.5h81h7q35 0 65.5 -22t39.5 -68q2 -16 12 -66h693q25 0 38 -1t29.5 -7.5t25.5 -20.5q20 -32 -8 -98q-7 -19 -64 -181l-9 -23q-20 -58 -92 -58h-539q8 -36 11 -50
q2 -11 4 -15.5t10.5 -8t23.5 -3.5h491q25 0 42.5 -17.5t17.5 -42.5t-17.5 -42.5t-42.5 -17.5zM147 668q10 0 12 -10l1 -3q60 -330 97 -508q22 -102 131 -102h491q15 0 25 10.5t10 24.5t-10 24.5t-25 10.5h-491q-33 0 -45.5 12t-17.5 34q-5 23 -13 66q-1 6 2.5 10.5t9.5 4.5
h554q54 0 69 41l8 24q57 161 65 181q22 55 9 76q-7 11 -23 14t-48 3h-703q-11 0 -13 10q-9 52 -14 77q-7 37 -33 54t-53 15h-82q-15 0 -25 -10t-10 -24.5t10 -24.5t25 -10h83h1h1h2z" />
    <glyph glyph-name="uniE603" unicode="&#xe603;" 
d="M523 792q12 -1 13 -1q97 -4 186 -46q81 -38 142 -102q100 -103 129 -242q12 -55 11 -109q-4 -159 -95 -283q-109 -147 -289 -189q-44 -11 -92 -12q-174 -4 -310 98q-135 100 -181 264q-12 46 -15 93q0 1 -2 26v22l1 4q0 2 0.5 14t1.5 18q4 55 21 105q68 200 257 292
q87 42 188 47l12 1h22zM512 774q-95 0 -182.5 -37t-151 -100t-101.5 -149.5t-39 -181.5q-2 -97 35 -186t100.5 -153t150.5 -102.5t182 -39.5q98 -1 186.5 36t152.5 100.5t102.5 150.5t39.5 182q1 98 -36.5 187t-101.5 153t-152 102t-185 38zM652 216q-2 0 -5 1t-8.5 5.5
t-4.5 11.5v211q0 14 -11 25t-27 11h-6q6 10 6 17q0 19 -3 47.5t-12.5 87t-29.5 87t-48 7.5q-12 -8 -33.5 -22t-35 -23.5t-28.5 -22t-23.5 -26.5t-10.5 -29v-106q0 -8 5 -17h-5q-15 0 -26 -11t-11 -25v-211q0 -6 -5 -10.5t-9 -5.5l-5 -2q-11 0 -14.5 -3t-3.5 -14v-265
q0 -18 10 -27t26 -9h64v248q0 16 -13 16.5t-13 -16.5v-222h-29q-2 0 -5.5 0.5t-8.5 5t-5 11.5v18v36v46v50v45v32v13q-6 22 12 22q5 0 8 2t5 5t2.5 5t1.5 4v-1v-2v223q0 2 0.5 5t5.5 8t12 5h24h55h64h56h25q9 0 13.5 -5t4.5 -9v-5q1 -203 1 -222q0 -7 5.5 -12t13.5 -5
q5 0 7.5 -4.5t2.5 -9.5v-4v-238q0 -5 -4.5 -9t-8.5 -6l-5 -2h-37q-12 0 -16.5 -7t-0.5 -13.5t15 -6.5h45q17 0 28.5 9.5t11.5 25.5v265q0 7 -4.5 11.5t-9.5 4.5l-5 1v0zM574 498q-3 -7 -7.5 -11.5t-7.5 -4.5l-3 -1q-131 -1 -141 0q-4 0 -9.5 4.5t-8.5 8.5l-3 4q-1 13 -2 32
t1.5 55t13.5 45q5 4 23 20.5t33 29t30 22.5q17 11 28.5 11t15.5 -6l3 -5q14 -35 16 -45q2 -13 7 -43t9.5 -69.5t1.5 -46.5v0zM574 498z" />
    <glyph glyph-name="uniE604" unicode="&#xe604;" 
d="M859 574h-565q-46 0 -78.5 -32.5t-32.5 -78.5v-425q0 -44 31.5 -67.5t79.5 -23.5h180l-55 56h-153q-11 0 -19 8t-8 19v461q0 12 8 20t19 8h621q12 0 20 -8t8 -20v-461q0 -11 -8 -19t-20 -8h-152l-56 -56h180q49 0 80.5 23.5t31.5 67.5v425q0 46 -33 78.5t-79 32.5z
M210 121h-73q-12 0 -20 8t-8 20v450q0 12 8 20t20 8h580q11 0 19.5 -8t8.5 -20v-29h55v2q0 46 -32.5 78.5t-78.5 32.5h-524q-46 0 -79 -32.5t-33 -78.5v-395q0 -46 33 -79t79 -33h45v56zM701 3l-105 -105q-8 -8 -19.5 -8t-19.5 8l-105 105h-78l124 -125q33 -32 79 -32t78 32
l125 125h-79zM369 384h415v-55h-415v55zM784 357zM756 356.5q0 11.5 8.5 19.5t20 8t19.5 -8t8 -19.5t-8 -19.5t-19.5 -8t-20 8t-8.5 19.5zM369 357zM342 356.5q0 11.5 8 19.5t19.5 8t19.5 -8t8 -19.5t-8 -19.5t-19.5 -8t-19.5 8t-8 19.5zM369 193h415v-56h-415v56zM784 165z
M756 164.5q0 11.5 8.5 20t20 8.5t19.5 -8.5t8 -20t-8 -19.5t-19.5 -8t-20 8t-8.5 19.5zM369 165zM342 164.5q0 11.5 8 20t19.5 8.5t19.5 -8.5t8 -20t-8 -19.5t-19.5 -8t-19.5 8t-8 19.5z" />
    <glyph glyph-name="uniE605" unicode="&#xe605;" 
d="M345 315zM626 185h-320q-10 0 -17 -7t-7 -16.5t7 -16.5t17 -7h320q7 0 12 3t8 8.5t3 11.5q0 10 -6.5 17t-16.5 7zM626 326h-320q-11 0 -17.5 -7t-6.5 -17q0 -6 3.5 -11.5t8.5 -8.5t12 -3h320q5 0 9 2t7 5t5 7t2 9q0 10 -6.5 17t-16.5 7zM626 467h-320q-10 0 -17 -6.5
t-7 -16.5t7 -17t17 -7h320q10 0 16.5 7t6.5 17t-6.5 16.5t-16.5 6.5zM426 568q3 -3 7.5 -5t8.5 -2h184q10 0 16.5 7.5t6.5 17t-6.5 16t-16.5 6.5h-184h-7q-16 -6 -16 -23q0 -5 2 -9.5t5 -7.5zM827.5 579.5q-3.5 8.5 -9.5 15t-14.5 10t-17.5 3.5h-46v47q0 20 -13.5 33.5
t-31.5 14.5h-457q-18 0 -31.5 -14t-13.5 -34v-565q0 -19 13.5 -33t31.5 -14h47v-47q0 -19 13 -33t32 -14h456q9 0 17.5 4t14.5 10t9.5 15t3.5 18v565q0 10 -3.5 18.5zM238 88v573h461v-25v-524v-24h-461zM786 -4h-456v47h365q12 0 22.5 6.5t16.5 17.5t6 23v471h46v-565z" />
    <glyph glyph-name="uniE606" unicode="&#xe606;" 
d="M484 -162q-21 2 -22 2q-103 7 -190 58q-132 76 -192 208q-27 59 -37 117q0 2 -6 58v5v25l1 17q3 52 16 97q41 137 142 223q90 77 201 102q36 8 71 10q1 0 18 2h26q16 -2 17 -2q68 -4 135 -29q104 -40 179.5 -124.5t102.5 -191.5q13 -50 14 -94l1 -5v-28q-1 -5 -1 -6
q0 -3 -0.5 -13t-1.5 -15q-3 -37 -13 -76q-29 -105 -107.5 -191.5t-189.5 -123.5q-59 -19 -111 -23q-1 0 -22 -2h-31zM945 299q0 93 -37 177t-99 144t-147.5 94t-178.5 31q-88 -3 -168.5 -40t-139 -98t-92 -146t-30.5 -179q3 -87 40 -166t96.5 -137t142.5 -92t173 -33
q121 2 222 62.5t159.5 162t58.5 220.5zM853 250q-1 -7 -1 -8q-1 -55 -24 -105q-28 -58 -82 -97q-50 -35 -121 -52q-34 -9 -71 -12q-50 -5 -90 -4q-49 3 -73 6q-97 15 -152 84q-31 38 -39 86q-11 71 23 134q31 54 87 83l9 4l-5 3q-52 20 -86 46q-24 19 -35 38.5t-6 40.5
q5 18 27 20q15 1 48 -5q1 0 22 -4q16 66 73 100q39 23 85 20t83 -31t52 -73q16 -49 -1 -97t-60 -77q23 -7 24 -8q46 -12 89 -10q36 1 62 11q43 15 68 54q9 14 12 19q6 7 13 1q35 -28 53 -77q14 -38 15 -79l1 -6v-5zM779 405l-1 -1q-4 -7 -5 -9q-22 -36 -55 -54
q-35 -19 -85 -22q-19 0 -47 2q-30 2 -73 16q-13 4 -9 16q2 5 6 8q20 14 32 30q37 48 28 107q-10 60 -61 94q-42 29 -95 22q-47 -6 -81 -41q-27 -27 -36 -67q-3 -13 -16 -11q-1 1 -11 3t-16 3q-22 2 -37 3q-17 1 -18 -14q-3 -18 10 -34q15 -21 45 -40q29 -19 67 -34
q10 -3 10 -12q0 -10 -9 -13q-1 -1 -7 -4q-45 -23 -73 -66q-30 -44 -32 -96q-1 -31 6 -55q15 -56 60 -94q38 -32 94 -47q20 -5 58 -8q55 -4 105 0q42 3 75 10q68 14 119 46q40 25 65 60q38 51 46 115q4 36 -1 71q-5 37 -22 70q-15 28 -36 46z" />
    <glyph glyph-name="uniE607" unicode="&#xe607;" 
d="M516.5 816.5q-116.5 -0.5 -215 -58t-155.5 -156.5t-56.5 -215t58 -214.5t156.5 -155.5t215 -57t214.5 57.5t155.5 156.5t56.5 215t-58 214.5t-156 156t-215 57zM518.5 15.5q-101.5 -0.5 -187.5 49.5t-136 135.5t-50 186.5t49.5 187t135.5 136t187 50.5t187 -49.5
t136 -135.5t50 -186.5t-49.5 -187t-135 -136t-187 -50.5zM383 608q-22 0 -28 -25q-14 -90 -67 -152q-11 -17 2 -34q16 -15 31 2q7 7 12 14v-220q2 -21 22 -24h1q21 3 21 24v298q20 45 26 86q4 27 -20 31zM741 244q-104 49 -148 110h131q19 0 19 21q-2 18 -20 18h-145v42h92
q40 0 40 38v86q0 40 -40 40h-220q-40 2 -40 -40v-84q2 -38 37 -40h89v-42h-131h-2q-15 -5 -17 -24q-1 -6 2 -10q5 -5 15 -5h122q-39 -53 -137 -106q-14 -9 -5 -30q13 -17 29 -8q85 42 124 95v-118q2 -19 22 -19v0q20 2 20 22v117q51 -59 141 -104q5 -3 10 -3q11 0 19 14
q11 21 -7 30zM470 477q-18 0 -18 18v48q-1 8 3 11q2 3 8 3h4h183h2q16 0 16 -20v-44q0 -16 -17 -16h-181z" />
    <glyph glyph-name="uniE608" unicode="&#xe608;" 
d="M512 683q-105 0 -194 -51t-140.5 -139.5t-51.5 -192.5t51.5 -192.5t140.5 -139.5t194 -51t194 51t140.5 139.5t51.5 192.5t-51.5 192.5t-140.5 139.5t-194 51zM512 647q95 0 175.5 -46.5t127 -126.5t46.5 -174q0 -118 -73 -212q-20 57 -61.5 101t-97.5 68q48 48 48 116
t-48.5 116t-116.5 48t-116.5 -48t-48.5 -116t48 -116q-56 -24 -97.5 -68t-61.5 -101q-73 94 -73 212q0 94 46.5 174t127 126.5t175.5 46.5zM380 373q0 54 38.5 92.5t93.5 38.5t93.5 -38.5t38.5 -92.5t-38.5 -92.5t-93.5 -38.5t-93.5 38.5t-38.5 92.5zM512 -47q-72 0 -136 27
t-112 76q16 61 60 108t105 67q38 -22 83 -22t83 22q61 -20 105 -67t60 -108q-48 -49 -112 -76t-136 -27z" />
    <glyph glyph-name="uniE609" unicode="&#xe609;" horiz-adv-x="1026" 
d="M984 499q-38 92 -109 163t-163 110q-95 40 -199.5 40t-199.5 -40q-91 -39 -162 -110q-71 -70 -110 -163q-40 -95 -40 -199t40 -199q39 -92 110 -163q70 -71 162 -110q96 -40 200 -40t199 40q92 39 163 110t109 163q41 95 41 199t-41 199zM513 -147q-91 0 -174 35.5
t-143 95.5t-95 142.5t-35 173.5t35 173.5t95 142.5t143 95.5t174 35.5t173.5 -35.5t142.5 -95.5t95.5 -142.5t35.5 -173.5t-35.5 -173.5t-95.5 -142.5t-142.5 -95.5t-173.5 -35.5zM755 253l-96 -7q-47 38 -105 85l142 89q-12 12 -24.5 17.5t-19.5 5.5h-7l-187 -35
q-107 86 -121 95q-21 13 -59.5 13.5t-47.5 -8.5q-11 -9 -10 -23t11 -24q5 -4 40 -33.5t68 -56.5l33 -27q-39 -164 -43 -182q-7 -27 4 -48q3 -7 9 -14.5t10 -11.5l5 -4l123 179l197 -125l27 39l101 48l-5 5q-5 4 -11 9.5t-8 7.5q-9 8 -26 6zM260 498q-4 -1 -1.5 -8t0.5 -9
q-2 -1 -4 -1t-4 1l-1 1q-16 13 -7 21q8 6 17 4q3 0 3.5 -3t-3.5 -6z" />
    <glyph glyph-name="uniE60A" unicode="&#xe60a;" 
d="M287 384h-62q-13 0 -22.5 9.5t-9.5 22.5t9.5 22.5t22.5 9.5h62q14 0 23 -9.5t9 -22.5t-9 -22.5t-23 -9.5zM883 768h-741q-32 0 -54.5 -22.5t-22.5 -54.5v-155v-9v-457q0 -29 20.5 -49.5t50.5 -20.5h753q30 0 50.5 20.5t20.5 49.5v457v164q0 32 -22.5 54.5t-54.5 22.5z
M896 691v-132h-223v145h210q5 0 9 -4t4 -9zM447 704h162v-360l-71 28q-12 5 -24 0l-67 -28v360zM128 691q0 5 4 9t10 4h241v-145h-255v132zM889 64h-753q-8 0 -8 6v425h255v-199q0 -17 14 -26q8 -6 18 -6q7 0 12 3l99 40l103 -40q16 -7 30 2.5t14 26.5v199h223v-425
q0 -6 -7 -6zM889 64z" />
    <glyph glyph-name="uniE60B" unicode="&#xe60b;" 
d="M798 -1h-639q-40 0 -68 28t-28 68v578q0 40 28 68t68 28h642q40 0 68 -28t28 -68v-94q0 -13 -9 -22.5t-22.5 -9.5t-23 9.5t-9.5 22.5v94q0 13 -9 22.5t-23 9.5h-642q-13 0 -22.5 -9.5t-9.5 -22.5v-578q0 -13 9.5 -22.5t22.5 -9.5h639q14 0 23 9.5t9 22.5v99
q0 13 9.5 22.5t23 9.5t22.5 -9.5t9 -22.5v-99q0 -40 -28 -68t-68 -28zM692 385v0q0 13 -9.5 22t-22.5 9t-22 -9t-9 -22v0v0q0 -13 9 -22t22 -9t22.5 9t9.5 22v0zM903 258h-331q-23 0 -39.5 16.5t-16.5 40.5v141q0 23 16.5 40t39.5 17h331q24 0 40.5 -17t16.5 -40v-141
q0 -24 -16.5 -40.5t-40.5 -16.5zM578 320h320v131h-320v-131z" />
    <glyph glyph-name="uniE60C" unicode="&#xe60c;" 
d="M858 621h-98q-35 88 -101.5 143t-146.5 55t-147.5 -55t-102.5 -143h-96q-19 0 -31.5 -13t-12.5 -32v-589q0 -19 12.5 -32t31.5 -13h692q20 0 32 10t12 29v589q0 19 -13 35t-31 16zM358 691q73 83 154 83q86 0 154 -76q13 -18 42 -77h-394q25 51 44 70zM172 -5v575h78
q0 -4 -3.5 -13.5t-3.5 -12.5q-10 -5 -17.5 -18t-7.5 -27q0 -23 15 -37t36 -14q23 0 37 15.5t14 35.5q0 15 -9 27.5t-23 17.5q0 13 6 26h429q6 -25 6 -26q-25 -9 -25 -45q0 -23 15 -37t36 -14q23 0 37.5 15.5t13.5 35.5q-2 40 -32 45q0 4 -2 13t-3 13h80v-575h-677z" />
    <glyph glyph-name="uniE60D" unicode="&#xe60d;" 
d="M514 -124l-11 32l491 235v473l-468 -230l-11 32l489 238l18 -11v-520l-7 -11zM514 -124zM1004 624l-477 236l-135 -66l-26 25l156 76h11l482 -239zM1004 634zM419 717l370 -179l-29 -23l-352 174l11 22v6zM419 714zM515 -124l-482 238l-7 12v460l36 -26v-424l446 -219
v482l-200 99l20 22l208 -102l7 -11v-518zM515 -124zM214 470q-88 0 -150.5 62.5t-62.5 150.5t62.5 150.5t150.5 62.5t150.5 -62.5t62.5 -150.5t-62.5 -150.5t-150.5 -62.5zM214 871q-78 0 -133 -55t-55 -133t55 -133t132.5 -55t133 55t55.5 133t-55.5 133t-132.5 55z
M214 871zM263 647h-88v137h25v-112h63v-25zM263 647z" />
    <glyph glyph-name="uniE60E" unicode="&#xe60e;" 
d="M510 -77q-94 0 -179 36.5t-147 98.5t-98.5 147t-36.5 178.5t36.5 179t98.5 147t147 98.5t179 37t179 -37t147 -98.5t98.5 -147t36.5 -179t-36.5 -178.5t-98.5 -147t-147 -98.5t-179 -36.5zM510 808q-115 0 -212.5 -57t-154.5 -154.5t-57 -212.5t57 -213t154.5 -154.5
t212.5 -56.5t212.5 56.5t154.5 154.5t57 213t-57 212.5t-154.5 154.5t-212.5 57zM510 384zM322 298v170q-7 -12 -24 -33q-7 -7 -9 -10l-33 24q75 94 113 196h48q-12 -31 -26 -64h137q-10 40 -19 64h49q3 -7 8 -24q7 -25 9 -40h184v-30h-191v-48h173v-28h-173v-50h170v-26
h-170v-49h196v-29h-395v-23h-47zM357 123q-47 2 -49 44v62q2 45 49 47h348q47 -2 50 -49v-57q2 -50 -52 -47h-346zM681 153q26 0 26 17v52q0 23 -23 23h-301q-26 0 -26 -23v-50q0 -19 26 -19h298zM374 551q0 -3 -2 -10q2 5 -3 -2v-36h152v48h-147zM521 475h-152v-50h152v50z
M521 399h-152v-49h152v49z" />
    <glyph glyph-name="uniE60F" unicode="&#xe60f;" 
d="M457.5 320q5.5 6 5.5 15t-5 15q-7 8 -31 55h26q8 0 13.5 6t5.5 14.5t-5.5 15t-13.5 6.5h-51v81q34 3 51 8q7 2 11 9.5t2.5 16t-8 13t-14.5 2.5q-40 -11 -125 -11q-7 0 -12.5 -6t-5.5 -15t5.5 -15t12.5 -6q23 0 46 1v-78h-55q-8 0 -13 -6.5t-5 -15t5 -14.5t13 -6h43
q-39 -75 -55 -99q-5 -7 -4 -15.5t7 -14t14 -4t12 7.5q22 33 38 61v-169q0 -8 5.5 -14.5t13.5 -6.5t13 6.5t5 14.5v190q14 -22 29 -41q5 -6 13 -6.5t13.5 5.5zM724.5 270q-7.5 0 -13 -6t-5.5 -14v-39q0 -5 -5.5 -9.5t-8.5 -4.5h-32q-8 0 -12 4q-3 3 -3 11v106v2h24
q20 0 33.5 13.5t13.5 32.5v90q0 19 -13.5 32.5t-33.5 13.5h-19q28 37 36 65q3 9 -1 16.5t-12 10t-15.5 -1.5t-9.5 -12q-9 -27 -39 -63q-5 -6 -4 -15h-37l3 3q6 6 6.5 14.5t-5.5 14.5q-22 25 -33 49q-6 11 -19 11q-4 0 -9 -2q-7 -4 -9.5 -12t0.5 -16q13 -27 41 -59l4 -3h-18
q-19 0 -33 -13.5t-14 -32.5v-90q0 -19 14 -32.5t33 -13.5h8q-1 -15 -4 -30t-11 -34.5t-25.5 -35t-42.5 -22.5q-8 -2 -12 -9.5t-2 -16.5q4 -15 20 -15h5q56 17 83.5 63t29.5 100h29v-2v-106q-1 -23 14 -39t39 -16h32q18 0 35 16t17 38v39q0 8 -6 14t-13.5 6zM529 362
q-6 0 -6 4v90q0 4 6 4h140q7 0 7 -4v-90q0 -4 -7 -4h-140zM512 812q-116 0 -214.5 -57.5t-156 -156t-57.5 -214.5t57.5 -214.5t156 -156t214.5 -57.5t214.5 57.5t156 156t57.5 214.5t-57.5 214.5t-156 156t-214.5 57.5zM512 12q-101 0 -186.5 50t-135.5 135.5t-50 186.5
t50 186.5t135.5 135.5t186.5 50t186.5 -50t135.5 -135.5t50 -186.5t-50 -186.5t-135.5 -135.5t-186.5 -50z" />
    <glyph glyph-name="uniE610" unicode="&#xe610;" horiz-adv-x="1083" 
d="M943 -128q-18 0 -30 13l-79 74q-201 190 -305 289l-92 -87q34 -86 47 -126.5t12 -50.5t-10 -19l-63 -59q-8 -9 -21 -9q-11 0 -16 2.5t-16.5 22.5t-27 55.5t-45.5 111.5l-21 -20q-14 -13 -34 -13t-34 13t-14 31.5t14 31.5l21 20q-97 36 -139 53.5t-51 24t-11 16.5
q-4 15 8 26l62 60q10 9 25 9q28 0 183 -56l92 87l-384 363q-19 18 -11 42q4 13 17 25l3 3q36 34 68 63q11 11 28 11q58 0 373 -175l22 21q18 16 43.5 16t42.5 -17q18 -16 18 -40t-17 -41q24 -14 52 -30l261 248q17 15 42 25t50 10q35 0 56 -20q18 -18 20 -46t-8.5 -53
t-27.5 -41l-262 -247q13 -19 32 -49q17 16 43 16t43 -17q18 -17 18 -40.5t-18 -40.5l-22 -21q62 -99 101.5 -169t58 -107t23 -60.5t2 -29.5t-10.5 -14l-34 -31q-33 -32 -36 -35q-20 -19 -41 -19zM529 316q12 0 21 -9q33 -31 326 -308l69 -65q8 8 33 32l26 24
q-16 63 -187 338q-11 18 5 34l38 36l-29 -24q-10 -9 -24.5 -7.5t-22.5 13.5q-24 39 -63 99q-12 19 5 34l278 263q12 12 17.5 33t-1.5 27q-4 3 -14 3q-30 0 -50 -18l-278 -263q-16 -16 -36 -4q-32 19 -105 60q-12 7 -14 20.5t8 23.5l27 25l-40 -34q-16 -16 -36 -5
q-291 162 -357 177q-33 -31 -59 -56l395 -373q8 -8 8 -20t-8 -20l-127 -119q-13 -13 -31 -7q-129 47 -172 57l-25 -23q55 -23 166 -63q17 -6 19 -22q1 -7 4 -12q2 -4 3 -9q6 -1 11 -4q5 -2 11 -3q17 -2 24 -18q44 -108 66 -156l24 23q-10 39 -59 162q-7 17 6 30l127 119
q9 9 21 9z" />
    <glyph glyph-name="uniE611" unicode="&#xe611;" 
d="M832 755l-204 9q-30 1 -65 -11.5t-57 -33.5l-365 -336q-24 -23 -26 -55q-1 -33 21 -57l231 -252q23 -24 56 -25q33 -2 57 20l365 337q22 20 38 54t17 63l9 204q1 33 -21.5 57.5t-55.5 25.5v0zM875 674l-8 -205q-1 -22 -14 -50t-30 -43l-366 -337q-13 -12 -32.5 -11
t-32.5 14l-231 252q-13 13 -12 32t15 33l365 336q17 15 46 25.5t52 9.5l204 -8q19 -1 32 -15.5t12 -32.5v0zM875 674zM733 601q4 -14 17 -22t27.5 -4t22 17t4 27.5t-16.5 22t-27.5 4t-22.5 -16.5t-4 -28zM733 601zM372 287q-25 22 -52 -2q-27 -25 -8 -45q2 -2 4.5 -3.5
t5.5 -2t5.5 -0.5t6 1.5t6.5 2.5t7.5 3.5t7 4t7.5 4t7 4.5q46 26 70 0q15 -20 9.5 -40.5t-23.5 -36.5q-22 -20 -44 -22t-44 18l15 14q15 -14 30.5 -12t30.5 15q30 28 10 49q-5 6 -11 8t-16.5 -2.5t-13.5 -6.5l-18 -10q-14 -8 -23.5 -12t-21.5 -3t-22 11q-15 20 -10.5 39
t21.5 36q43 38 79 2zM372 287zM411 387l17 17l156 -76l-18 -17l-46 24l-50 -46l20 -48l-17 -15zM463 307l40 37l-70 37h-1zM463 307zM486 457l16 14l97 -105l62 58l13 -14l-79 -72zM486 457zM579 542l81 75l13 -14l-66 -60l34 -38l62 57l12 -14l-61 -56l37 -41l67 61l12 -13
l-82 -76zM579 542z" />
    <glyph glyph-name="uniE612" unicode="&#xe612;" 
d="M922 -91l-294 294q75 87 71.5 203.5t-86.5 198.5q-86 87 -209 87t-209.5 -86.5t-86.5 -209.5t86.5 -209.5t209.5 -86.5q111 0 195 74l294 -294zM404 139q-106 0 -181.5 75.5t-75.5 181.5t75.5 181t181.5 75t181 -75t75 -181t-75 -181.5t-181 -75.5z" />
    <glyph glyph-name="uniE613" unicode="&#xe613;" 
d="M332 306l-1 3l-1 4v2v9v3l1 4l2 4l1 4l3 5l3 4v3v3v4l2 4l1 5l1 2l1 3l2 2l1 2v11l1 5l1 7l2 8l2 8l2 4l1 5l2 5l2 5l3 5l2 5l3 5l4 6l2 3l1 2l4 6l4 5l5 6l5 6l5 6l6 5l6 6l5 4l5 4l5 4l6 3l5 3l6 3l7 3l7 2l6 2l7 2l7 2l8 2l7 1l15 2h8h23l8 -1l8 -1l7 -1l8 -1l8 -2
l7 -2l8 -2l7 -3l7 -3l8 -3l7 -3l6 -4l7 -4l5 -4l3 -2l3 -2l5 -4l4 -5l5 -4l4 -5l4 -5l4 -5l3 -5l3 -4l3 -6l2 -5l5 -10l2 -5l2 -5l1 -5l2 -5l1 -4l1 -5l3 -9l1 -7l1 -8l1 -6l1 -9l1 -1l1 -2l3 -5l1 -3l2 -3l2 -4l2 -4l1 -5l2 -4l1 -5v-3v-3v-2v-3v-3l-1 -3l-1 -6l-2 -3
l-1 -4v-1l1 -1l1 -2l7 -10l6 -8l2 -5l4 -6l3 -6l3 -6l4 -8l4 -8l2 -5l2 -5l2 -5l1 -5l2 -5l1 -5l2 -9l1 -9l1 -8v-12l-1 -4v-7l-2 -7l-2 -5v-3l-2 -3l-1 -2l-1 -2l-1 -2l-2 -2l-2 -1l-1 -2h-2l-2 -1l-1 -1h-2l-2 1l-2 1l-1 1l-2 1l-1 1l-1 1l-3 3l-2 4l-3 3l-2 3l-2 4l-3 6
l-3 6h-1l-1 -1l-1 -1l-1 -2l-2 -7l-4 -8l-4 -11l-3 -5l-4 -6l-4 -6l-4 -6l-2 -3l-3 -3l-6 -6l1 -1l3 -2l13 -6l6 -3l5 -3l5 -4l5 -4l2 -2l2 -2l2 -2l1 -3l1 -2l1 -2v-3l1 -2l-1 -2v-2v-2l-1 -1l-1 -2v-1l-3 -3l-2 -3l-2 -2l-1 -1l-3 -3l-4 -2l-5 -2l-4 -2l-5 -2l-3 -1l-2 -1
l-6 -1l-6 -1l-6 -2l-7 -1h-7l-7 -1h-22l-8 1h-7l-8 1l-8 1l-8 1l-8 2l-8 2l-8 2l-7 3l-8 2l-4 2l-4 1l-2 1h-3h-6l-8 1h-3l-5 1l-3 -3l-5 -3l-6 -2l-6 -4l-4 -2l-4 -1l-9 -4l-5 -1l-5 -2l-7 -1h-4l-5 -1h-5l-6 -1h-23l-13 1l-13 1l-6 1l-13 2l-6 1l-6 2l-5 1l-5 2l-5 2l-5 2
l-4 2l-3 3l-2 2l-1 1l-2 2l-1 2l-1 1l-1 2l-1 3l-1 2v2v2v2v3l1 2v4v2l1 3l1 2l1 4l2 1l1 1l2 3l2 2l2 1l1 1l3 1l2 1l3 2l3 1h3l3 1l4 1h4h4l1 1h1v1l-1 1l-2 1l-6 5l-4 3l-4 4l-5 4l-4 6l-6 6l-2 3l-2 4l-2 4l-3 4l-2 5l-2 4l-2 5l-2 6l-2 5l-1 6h-1l-1 1l-1 -1h-1v-1v-1
l-1 -2l-1 -1l-2 -5l-2 -3l-2 -2l-2 -3l-3 -4l-2 -3l-3 -2l-3 -3l-3 -2l-4 -2l-3 -2l-4 -1h-4h-1h-1l-1 2l-1 1l-1 3l-1 2l-1 3l-1 3l-1 3l-1 7v4v12v10l1 5l1 5l1 5l1 5l2 6l2 6l2 6l2 5l3 6l3 6l3 6l4 6l4 5l4 7l4 4l4 5l5 5l2 2l3 3l4 3l4 4l6 5l5 4zM511 -159
q-91 0 -174 35q-80 34 -142 96t-96 142q-35 84 -35 175t35 174q34 80 96 142t142 96q83 35 174 35t175 -35q80 -34 142 -96t96 -142q35 -83 35 -174t-35 -175q-34 -80 -96 -142t-142 -96q-84 -35 -175 -35zM511.5 710q-114.5 0 -211.5 -56.5t-153.5 -153.5t-56.5 -211.5
t56.5 -211.5t153.5 -153.5t211.5 -56.5t211.5 56.5t153.5 153.5t56.5 211.5t-56.5 211.5t-153.5 153.5t-211.5 56.5z" />
    <glyph glyph-name="uniE614" unicode="&#xe614;" 
d="M512 -149q-91 0 -174.5 35.5t-143.5 95.5t-95.5 143.5t-35.5 174.5t35.5 174.5t95.5 143.5t143.5 95.5t174.5 35.5t174.5 -35.5t143.5 -95.5t95.5 -143.5t35.5 -174.5t-35.5 -174.5t-95.5 -143.5t-143.5 -95.5t-174.5 -35.5v0zM581 519q0 25 -22 43.5t-48 18.5
t-47.5 -18.5t-21.5 -43.5v-260q0 -25 18.5 -43.5t44.5 -18.5q27 0 51.5 19t24.5 43v260v0zM513 163q-29 0 -49.5 -20.5t-20.5 -49.5t20.5 -49.5t49.5 -20.5t49.5 20.5t20.5 49.5t-20.5 49.5t-49.5 20.5v0zM513 163z" />
    <glyph glyph-name="uniE615" unicode="&#xe615;" 
d="M514 802q-102 0 -195 -40t-160 -107t-107 -160t-40 -195t40 -195t107 -160t160 -107t195 -40t195 40t160.5 107t107 160t39.5 195t-39.5 195t-107 160t-160.5 107t-195 40zM514.5 760q93.5 0 178.5 -36.5t146.5 -98t98 -147t36.5 -178.5q0 -166 -106 -294q-92 38 -221 77
q-5 1 -6 4.5t-1 21.5q0 22 16 56q17 36 22 76q23 26 33 79q9 43 -1 67l-1 4q-2 8 0.5 38t6.5 56q4 23 -4 58.5t-32 65.5q-48 62 -141 68h-42q-92 -6 -141 -68q-23 -30 -31.5 -65.5t-4.5 -58.5q5 -26 7 -56t1 -37q-1 -2 -2 -5q-9 -24 -1 -67q11 -53 33 -79q5 -40 23 -76
q9 -20 9 -57q0 -17 -1 -21t-6 -5q-50 -15 -119 -39.5t-101 -38.5q-109 128 -109 296q0 93 36.5 178.5t98 147t147 98t179 36.5zM193 -29q98 40 203 71q12 4 20 11t11 17.5t4 17.5t1 20q0 47 -14 75q-16 34 -19 69q-1 9 -7 14q-16 14 -26 63q-6 30 -1 43q2 5 3 9q3 16 1 50
t-7 62q-3 14 3 40.5t24 49.5q37 47 109 52h40q72 -5 109 -52q18 -23 24.5 -49.5t3.5 -40.5q-5 -28 -7.5 -62t0.5 -50q1 -4 3 -9q5 -13 -1 -43q-9 -49 -25 -63q-7 -5 -7 -14q-3 -35 -20 -69q-20 -43 -20 -74q0 -13 1 -20t4 -17.5t11 -17.5t21 -11q107 -32 203 -70
q-64 -63 -147.5 -98t-176.5 -35q-92 0 -175 34.5t-146 96.5z" />
    <glyph glyph-name="uniE616" unicode="&#xe616;" 
d="M512 729q-91 0 -174 -35.5t-143 -95.5t-95.5 -143t-35.5 -174t35.5 -174t95.5 -143t143 -95.5t174 -35.5t174 35.5t143 95.5t95.5 143t35.5 174t-35.5 174t-95.5 143t-143 95.5t-174 35.5zM512 665q104 0 192.5 -51.5t140 -140t51.5 -192.5q0 -126 -76 -228
q-73 115 -202 154q38 26 60 67t22 88q0 78 -55 133t-133 55t-133 -55t-55 -133q0 -48 22.5 -89t60.5 -67q-63 -19 -114.5 -59.5t-86.5 -96.5q-78 103 -78 231q0 104 51.5 192.5t140 140t192.5 51.5zM388 362q0 51 36.5 87.5t87.5 36.5t87.5 -36.5t36.5 -87.5t-36.5 -87.5
t-87.5 -36.5t-87.5 36.5t-36.5 87.5zM251 0q39 72 109 115t154 43q83 0 153 -42.5t109 -113.5q-111 -105 -264 -105q-150 0 -261 103z" />
    <glyph glyph-name="uniE617" unicode="&#xe617;" 
d="M313 812l-127 -126l413 -382l-397 -392l119 -124l517 511z" />
    <glyph glyph-name="uniE618" unicode="&#xe618;" 
d="M823 354h-68v159q0 101 -71.5 172t-171.5 71t-171.5 -71t-71.5 -172v-159h-68q-25 0 -42.5 -18t-17.5 -42v-438q0 -25 17.5 -42.5t42.5 -17.5h622q25 0 42.5 17.5t17.5 42.5v438q0 24 -17.5 42t-42.5 18zM546 63v-95q0 -8 -8 -8h-52q-8 0 -8 8v95q-18 10 -29.5 27.5
t-11.5 39.5q0 31 22 52.5t53 21.5t53 -21.5t22 -52.5q0 -22 -11.5 -39.5t-29.5 -27.5zM662 354h-299v155q0 62 43.5 106t105.5 44t106 -44t44 -106v-155z" />
    <glyph glyph-name="uniE619" unicode="&#xe619;" 
d="M509 -55q-38 0 -61 31q-45 57 -85 114t-84.5 128.5t-70.5 138t-26 113.5q0 89 44 165t119.5 120t165 44t165.5 -44t120 -120t44 -165q0 -149 -267 -494q-26 -31 -64 -31zM509.5 746q-115.5 0 -196.5 -81t-81 -197q0 -63 68 -185.5t188 -276.5q7 -9 21.5 -9t21.5 9
q120 154 188 276.5t68 185.5q0 116 -81 197t-196.5 81zM509.5 372q-50.5 0 -86 36t-35.5 86t36 86t85.5 36t85.5 -36t36 -86t-35.5 -86t-86 -36zM509 566q-29 0 -49.5 -21t-20.5 -50t20.5 -49.5t49.5 -20.5q30 0 50.5 20.5t20.5 49.5q1 29 -20 50t-51 21z" />
    <glyph glyph-name="uniE61A" unicode="&#xe61a;" 
d="M256 384l512 -512v136l-376 376l376 376v136z" />
    <glyph glyph-name="uniE61B" unicode="&#xe61b;" 
d="M111 535l3 7q11 33 45 35q14 1 27.5 -6.5t20.5 -21.5q15 -29 -7 -55l-5 -5q105 -65 112 -69q35 -21 42 -25q12 -8 18 4q25 45 128 233q-30 16 -31 46q-1 22 15 38q16 15 38 14t36 -18q16 -20 10.5 -41.5t-30.5 -38.5q32 -59 33 -60q54 -98 92 -169q6 -10 10.5 -11t14.5 5
q62 38 143 87l7 5q-16 16 -17 35t11 34t30 18q20 3 36 -6.5t22 -28.5l2 -6v-17q-13 -41 -54 -42q-3 -8 -3 -9q-19 -67 -84 -287q-2 -10 -6.5 -13t-13.5 -3h-483q-10 0 -14.5 3t-6.5 13q-48 162 -68 233q-1 3 -19 63q-33 0 -48 27q0 1 -6 15v17zM514 113h226q15 0 25.5 -9.5
t12.5 -23.5t-6.5 -26t-23.5 -15q-3 -1 -8 -1h-452q-28 0 -36 26q-4 11 -0.5 23t13.5 18q12 8 25 8h224z" />
    <glyph glyph-name="uniE61C" unicode="&#xe61c;" 
d="M819 95v-159l-156 96q-35 -5 -67 -5q-80 0 -150 28t-121 78q25 -1 33 -1q22 0 46 2q84 -58 192 -58q35 0 72 7l55 -36h-1l41 -27v99q65 36 102.5 95t37.5 127q0 87 -60 158q4 29 4 52q0 3 -1 24q53 -44 83 -103.5t30 -126.5q0 -75 -37.5 -140.5t-102.5 -109.5zM428 195
q-33 0 -67 5l-157 -96v158q-65 45 -102.5 110.5t-37.5 140.5q0 86 49 159.5t132.5 116t182.5 42.5t182.5 -42.5t132 -116t48.5 -160t-48.5 -159.5t-132 -115.5t-182.5 -42.5zM428 775q-127 0 -217.5 -78t-90.5 -188q0 -69 38 -127.5t102 -94.5v-99l41 27l55 36q36 -7 72 -7
q127 0 217.5 77.5t90.5 187.5t-90.5 188t-217.5 78zM610 467q-18 0 -30 12.5t-12 29.5t12 29.5t29.5 12.5t30 -12.5t12.5 -29.5t-12.5 -29.5t-29.5 -12.5zM442 467q-17 0 -29.5 12.5t-12.5 29.5t12.5 29.5t29.5 12.5t29.5 -12.5t12.5 -29.5t-12.5 -29.5t-29.5 -12.5z
M274 467q-17 0 -29.5 12.5t-12.5 29.5t12.5 29.5t30 12.5t29.5 -12.5t12 -29.5t-12 -29.5t-30 -12.5zM274 467z" />
    <glyph glyph-name="uniE61D" unicode="&#xe61d;" 
d="M785 -30l-276 133l-278 -129l44 298l-211 219l303 51l147 264l144 -266l302 -56l-214 -216z" />
    <glyph glyph-name="uniE61E" unicode="&#xe61e;" horiz-adv-x="1025" 
d="M209 604v-487h614v487h-614v0zM183 604q0 10 7.5 17.5t18.5 7.5h614q11 0 18.5 -7.5t7.5 -17.5v-487q0 -10 -7.5 -17.5t-18.5 -7.5h-614q-11 0 -18.5 7.5t-7.5 17.5v487zM357 681q7 0 11.5 -19t4.5 -45q0 -27 -4.5 -45.5t-11.5 -18.5q-6 0 -11 18.5t-5 45.5q0 26 5 45
t11 19zM667 681q6 0 11 -19t5 -45q0 -27 -5 -45.5t-11 -18.5q-7 0 -11.5 18.5t-4.5 45.5q0 26 4.5 45t11.5 19zM465 272q9 -9 18 0l155 156q9 9 0 18t-18 0l-147 -147l-62 63q-10 9 -19 0t0 -18z" />
    <glyph glyph-name="uniE61F" unicode="&#xe61f;" 
d="M259 275q-39 20 -63.5 61.5t-30.5 90t4.5 100.5t34.5 94.5t66.5 71.5t94.5 32h17q24 3 27.5 -15.5t-6.5 -42.5q-9 -27 -24 -59t-27.5 -55.5t-25 -54t-18.5 -59t-5.5 -66t11.5 -78.5q6 -22 5.5 -33t-13.5 -8.5t-47 21.5zM488 671q30 -28 44 -63t14 -72.5t-7 -83.5
q-60 -34 -103.5 -89t-53.5 -116q-26 -7 -35.5 3.5t-15.5 41.5q-8 48 -2 80t22 67t33 62.5t30 66.5t13 79q0 5 -0.5 16t-0.5 16t1 12.5t3.5 9.5t7 3.5t11 -2.5t16.5 -11.5t23 -19.5zM881 247q-1 -41 -25.5 -79.5t-62 -66t-86 -43.5t-95.5 -16.5t-91.5 19.5t-73.5 60
q-15 21 -16 32t9 16.5t38 13.5q35 10 85 15.5t85 9t82 23.5t89 57q7 7 19 20q27 29 34 26q11 -5 9 -87zM420 244q7 58 56.5 106.5t113 72.5t130.5 20t106 -42q17 -17 20 -28.5t-2 -19t-21 -24.5q-30 -29 -73.5 -46t-83.5 -23t-95 -17.5t-97 -29.5q-5 -2 -14 -8t-15 -11
t-13 -7.5t-10 2t-5 17t3 38.5z" />
    <glyph glyph-name="uniE620" unicode="&#xe620;" horiz-adv-x="1025" 
d="M998 473h4q9 -1 15 6q7 6 7 15v179q0 21 -15 36t-37 15h-921q-21 0 -36 -15t-15 -36v-578q0 -21 15 -36t36 -15h922q21 0 36 15t15 36v181q0 9 -7 15q-6 7 -15 6h-2h-2q-37 0 -62.5 26t-25.5 62t25.5 62t62.5 26zM981 255v-160q0 -9 -9 -9h-921q-8 0 -8 9v578q0 9 8 9
h922q9 0 9 -9v-159q-49 -6 -82 -43t-33 -86.5t33 -86t81 -43.5zM981 255zM182 630h22v-26h-22v26zM182 630zM182 455h22v-56h-22v56zM182 455zM182 558h22v-57h-22v57zM182 558zM182 250h22v-56h-22v56zM182 250zM182 353h22v-57h-22v57zM182 353zM182 148h22v-26h-22v26z
M182 148zM734 624h21v-26h-21v26zM734 624zM734 258h21v-54h-21v54zM734 258zM734 357h21v-55h-21v55zM734 357zM734 554h21v-55h-21v55zM734 554zM734 455h21v-54h-21v54zM734 455zM734 159h21v-26h-21v26zM734 159zM557 555q-84 -137 -87 -145h-1q-3 8 -15.5 27.5t-33 52
t-37.5 65.5h-48l91 -154h-75v-34h96v-41h-96v-34h96v-89h43v89h94v34h-94v41h94v34h-75l94 154h-46zM557 555z" />
  </font>
</defs>
</svg>
